<svg width="795" height="932" viewBox="0 0 795 932" fill="none" xmlns="http://www.w3.org/2000/svg">
<path fill-rule="evenodd" clip-rule="evenodd" d="M419.227 857.113C416.356 861.821 414.375 866.558 411.619 871.295C403.293 885.477 391.522 896.272 378.374 905.746C361.666 916.489 343.113 924.042 323.654 928.025C307.703 931.164 291.424 932.302 275.192 931.412C264.44 931.439 253.729 930.079 243.325 927.364C225.894 922.558 210.553 912.096 199.716 897.622C191.443 887.71 186.581 875.399 185.849 862.51C182.978 836.844 194.175 816.575 215.621 801.733C221.107 798.396 227.264 796.317 233.65 795.646C237.052 794.859 240.524 794.407 244.014 794.297C255.418 794.64 266.287 799.214 274.503 807.13C280.044 812.527 284.896 818.614 286.274 826.71C288.341 839.543 284.896 851.026 273.814 859.122C271.079 861.44 267.803 863.029 264.29 863.742C260.776 864.455 257.14 864.268 253.718 863.199L249.555 861.161L247.488 859.122C247.488 858.462 246.799 857.113 247.488 856.424C247.488 855.763 248.866 855.763 249.555 856.424C259.948 859.811 272.522 851.715 273.814 840.232C274.368 836.557 274.051 832.803 272.89 829.272C271.728 825.742 269.753 822.533 267.125 819.905C264.497 817.277 261.289 815.303 257.758 814.141C254.228 812.979 250.474 812.662 246.799 813.216C239.736 814.101 233.003 816.721 227.202 820.845C221.4 824.968 216.711 830.465 213.553 836.844C208.09 845.725 205.887 856.23 207.324 866.558C208.702 878.042 214.932 885.477 226.013 889.525C232.337 891.21 238.885 891.898 245.421 891.564C258.408 891.149 271.247 888.678 283.461 884.243C292.243 881.277 300.275 876.438 307.002 870.061C314.639 861.936 322.247 854.529 329.97 847.093C338.909 837.511 349.768 829.92 361.837 824.815C374.628 818.873 388.587 815.871 402.69 816.03H438.003C459.767 816.54 480.719 824.391 497.46 838.308C505.479 844.584 512.899 851.59 519.623 859.237C523.757 863.314 527.911 867.372 532.083 871.41C539.598 878.67 548.914 883.794 559.07 886.253C569.898 889.37 581.058 891.191 592.315 891.679C598.387 892.011 604.472 891.322 610.316 889.64C622.776 885.592 629.723 877.496 630.412 864.663C631.172 851.141 626.712 837.843 617.953 827.513C611.317 820.062 602.212 815.26 592.315 813.991C586.442 812.592 580.254 813.561 575.09 816.69C567.482 820.738 564.697 827.513 564.008 835.609C563.483 838.457 563.719 841.393 564.692 844.12C565.664 846.847 567.34 849.269 569.549 851.141C571.447 853.265 573.811 854.919 576.456 855.975C579.101 857.031 581.955 857.46 584.793 857.228C586.171 857.228 586.86 856.539 588.238 856.539C588.956 855.878 589.645 856.539 590.334 856.539V858.405C589.302 859.893 587.963 861.145 586.409 862.075C584.854 863.006 583.119 863.595 581.32 863.802C577.348 864.485 573.266 864.095 569.495 862.671C565.725 861.248 562.403 858.843 559.874 855.706C554.754 850.526 551.552 843.756 550.795 836.513C550.039 829.269 551.772 821.984 555.711 815.857C564.008 803.024 575.807 795.589 590.334 794.9C597.72 794.001 605.212 794.748 612.275 797.086C619.338 799.423 625.797 803.295 631.188 808.422C641.013 817.657 647.776 829.68 650.566 842.873C653.992 857.472 652.024 872.818 645.025 886.08C635.35 905.689 620.106 917.833 600.038 925.269C590.43 928.651 580.403 930.699 570.238 931.355C560.325 932.015 550.379 932.015 540.466 931.355C514.14 929.317 489.22 923.23 467.057 910.397C453.606 902.963 441.822 892.85 432.433 880.683C426.86 873.773 422.421 866.02 419.284 857.716V857.055L419.227 857.113Z" fill="#231F20"/>
<path d="M701.552 590.087C668.881 541.798 601.3 518.314 541.757 534.764C500.559 546.248 467.457 568.67 447.762 607.599C423.474 655.573 442.021 717.671 490.826 753.328C540.522 789.817 619.645 788.439 670.891 749.883C702.931 725.824 719.926 693.699 721.161 656.865C720.644 630.423 714.529 609.293 701.552 590.087ZM672.527 698.694C661.273 736.217 621.655 759.242 578.619 753.242C524.244 745.72 481.008 696.11 480.778 641.275C480.606 578.976 540.12 538.668 601.357 559.626C628.841 569.188 651.578 588.981 664.835 614.886C678.092 640.79 680.847 670.809 672.527 698.694Z" fill="#A31C20"/>
<path d="M355.809 557.706C329.924 538.446 298.715 527.666 266.462 526.844C234.208 526.021 202.49 535.197 175.658 553.113C132.422 581.822 111.206 628.532 121.369 673.031C135.723 735.646 189.611 776.586 261.613 776.385C293.883 776.662 325.393 766.602 351.531 747.675C417.16 700.707 419.4 604.56 355.809 557.706ZM358.909 668.926C356.411 727.837 307.233 762.92 248.063 747.934C202.271 736.45 165.007 691.52 161.935 644.58C158.605 591.698 197.965 551.132 252.139 551.562C312.572 552.079 361.55 605.995 358.909 668.926Z" fill="#A31C20"/>
<path fill-rule="evenodd" clip-rule="evenodd" d="M270.977 290.94C257.329 292.373 244.587 298.455 234.89 308.165C228.034 315.379 222.815 323.987 219.588 333.401C216.564 342.027 214.692 351.014 214.018 360.129C214.018 361.249 213.846 362.282 213.817 363.23C212.583 363.747 211.406 364.177 210.343 364.522C200.955 367.565 191.539 367.852 187.807 379.881C185.883 381.23 184.103 382.752 182.467 384.044C177.498 388.326 173.133 393.261 169.49 398.714C166.007 400.239 162.239 401.003 158.437 400.954C127.333 399.862 96.335 396.707 65.6486 391.508C-51.3991 371.929 -8.45004 141.594 166.734 228.727C201.903 248.335 231.961 269.58 270.977 290.94Z" fill="#D5154D"/>
<path fill-rule="evenodd" clip-rule="evenodd" d="M362.079 232.54C351.457 242.846 340.547 255.048 340.547 255.048C324.671 252.406 314.967 255.478 308.967 260.789C308.853 260.865 308.748 260.952 308.651 261.048C308.106 261.545 307.588 262.072 307.101 262.627C306.358 263.537 305.677 264.496 305.062 265.498C304.509 266.356 304.011 267.247 303.57 268.168C303.225 268.943 302.881 269.718 302.622 270.493C300.365 277.318 299.803 284.59 300.986 291.681C247.464 268.528 195.539 241.847 145.554 211.811C133.812 204.663 115.323 204.519 98.011 199.323C70.0482 190.882 63.3877 191.198 66.1725 162.173C72.4024 97.3188 134.041 61.5183 192.895 89.8831C209.725 97.7638 225.346 108.001 239.289 120.286C280.43 156.489 320.307 193.926 362.079 232.54Z" fill="#4A2A86"/>
<path fill-rule="evenodd" clip-rule="evenodd" d="M479.729 223.501C468.791 233.262 459.058 247.445 445.795 252.211C438.348 247.121 429.577 244.317 420.559 244.143L397.104 227.377C397.104 227.377 387.945 218.391 380.653 218.248C378.959 218.248 375.859 220.2 372.04 223.272C361.877 216.755 351.944 209.807 342.556 202.429C315.598 180.868 292.889 155.259 267.051 130.943C238.054 103.927 206.761 79.6104 166.023 69.476C141.792 63.4184 140.414 57.332 155.63 36.403C210.35 -38.5857 320.45 16.1342 362.681 76.2514C386.95 110.703 411.889 144.474 437.498 177.566C449.957 193.759 465.145 207.97 479.729 223.501Z" fill="#D5154D"/>
<path fill-rule="evenodd" clip-rule="evenodd" d="M751.852 420.038C713.841 440.307 671.724 438.211 632.536 427.818C630.581 416.171 626.252 405.05 619.818 395.147C613.565 385.721 605.68 377.486 596.534 370.83C592.691 367.991 588.663 365.412 584.477 363.108C610.889 339.595 696.845 292.741 724.205 266.702C774.676 204.374 788.169 305.919 792.762 339.652C796.897 370.342 774.704 407.865 751.852 420.038Z" fill="#D5154D"/>
<path fill-rule="evenodd" clip-rule="evenodd" d="M451.346 41.7986C472.82 67.4647 490.821 95.8294 510.2 123.534C520.593 138.377 530.296 153.908 541.378 170.818C524.755 185.661 508.133 199.843 489.443 216.064C420.885 162.033 390.396 78.2594 323.934 18.1421C371.706 -6.17462 416.033 -3.44724 451.346 41.7986Z" fill="#4A2A86"/>
<path fill-rule="evenodd" clip-rule="evenodd" d="M766.41 211.326C714.475 268.744 652.147 312.641 584.278 350.479C579.813 352.966 575.06 354.895 570.124 356.221C567.473 355.111 564.76 354.153 562 353.35C563.295 349.641 564.115 345.782 564.44 341.867C564.742 338.773 564.742 335.658 564.44 332.565C563.817 326.276 562.299 320.108 559.932 314.248C562.899 310.861 566.22 307.8 569.837 305.119C612.069 273.539 651.544 238.255 691.708 204.636C704.857 193.813 715.594 179.946 731.183 174.233C739.279 171.362 750.562 169.496 759.577 173.573C776.802 181.611 779.558 197.143 766.41 211.326Z" fill="#4A2A86"/>
<path fill-rule="evenodd" clip-rule="evenodd" d="M702.735 176.882C670.867 207.285 636.933 235.65 603.716 264.704C587.524 278.369 570.902 291.662 554.193 305.184C539.639 294.118 522.45 287.043 504.325 284.656C507.36 280.449 510.72 276.484 514.373 272.8C561.456 226.865 609.946 181.619 657.029 134.995C668.111 124.861 675.719 120.813 688.868 132.296C711.032 151.905 716.572 163.388 702.735 176.882Z" fill="#D5154D"/>
<path fill-rule="evenodd" clip-rule="evenodd" d="M473.482 46.5294C534.403 41.1033 575.974 66.1091 612.665 110.695C591.879 127.576 571.122 145.146 548.27 164.036C523.321 125.537 499.78 87.7272 473.626 46.5294H473.482Z" fill="#D5154D"/>
<path fill-rule="evenodd" clip-rule="evenodd" d="M653.937 122.501C627.639 155.114 521.874 251.176 478.58 284.536C474.033 285.08 469.545 286.041 465.173 287.407C464.644 283.422 463.76 279.492 462.532 275.665C461.575 274.811 460.82 273.755 460.324 272.573C459.827 271.391 459.601 270.113 459.661 268.832C459.001 267.483 458.283 266.219 457.536 265.014C488.514 217.959 602.576 116.156 646.386 109.524C647.983 109.294 649.612 109.546 651.065 110.249C652.517 110.951 653.727 112.071 654.538 113.466C655.349 114.86 655.726 116.465 655.618 118.075C655.511 119.685 654.926 121.226 653.937 122.501Z" fill="#4A2A86"/>
<path fill-rule="evenodd" clip-rule="evenodd" d="M748.663 461.011C748.552 461.354 748.397 461.682 748.204 461.987C747.262 463.42 745.967 464.587 744.443 465.374C744.073 465.608 743.69 465.819 743.295 466.006C741.897 466.646 740.446 467.165 738.959 467.556L738.529 467.815L737.983 468.131C736.691 468.963 735.112 470.054 733.189 471.346L731.466 472.523L729.284 474.016L727.418 475.279C715.504 483.203 697.532 493.825 678.613 494.313C661.157 494.744 643.702 494.888 624.467 494.945C632.304 473.011 634.888 454.293 633.883 438.388C660.612 440.024 691.532 440.254 715.102 441H715.647L722.911 441.259H723.744C725.455 441.482 727.152 441.808 728.825 442.235L729.428 442.407C730.633 442.729 731.822 443.112 732.988 443.555H733.16C734.05 443.9 734.94 444.244 735.773 444.646C736.605 445.02 737.438 445.421 738.213 445.852C740.693 447.172 742.982 448.824 745.017 450.761C746.135 451.862 747.1 453.108 747.888 454.465C748.194 455.036 748.453 455.631 748.663 456.245C749.268 457.776 749.268 459.48 748.663 461.011Z" fill="#4A2A86"/>
<path fill-rule="evenodd" clip-rule="evenodd" d="M158.595 441.779C130.258 442.181 102.784 443.243 75.3376 440.975C65.4125 440.285 55.9444 436.54 48.2335 430.253C40.5227 423.966 34.9475 415.446 32.2737 405.863C73.2131 410.112 118.028 410.543 161.753 413.5C158.494 422.547 157.412 432.235 158.595 441.779Z" fill="#4A2A86"/>
<path fill-rule="evenodd" clip-rule="evenodd" d="M177.027 485.554L121.675 488.941L87.741 453.801L160.749 452.825C161.677 456.315 162.837 459.739 164.223 463.074C166.537 468.694 169.353 474.094 172.634 479.209C174.299 481.822 175.821 483.975 177.027 485.554Z" fill="#D5154D"/>
<path fill-rule="evenodd" clip-rule="evenodd" d="M745.613 436.917L791.318 395.719L794.103 411.25L751.843 455.147L747.709 449.75L745.613 436.917Z" fill="#4A2A86"/>
<path fill-rule="evenodd" clip-rule="evenodd" d="M712.437 492.988C744.276 475.418 769.195 451.101 792.823 421.387C792.823 448.402 759.578 469.331 745.022 492.988H712.437Z" fill="#D5154D"/>
<path fill-rule="evenodd" clip-rule="evenodd" d="M751.179 493.798C769.898 474.218 772.654 474.907 787.209 449.241C791.343 472.209 783.736 471.52 771.276 493.798H751.179Z" fill="#4B2483"/>
<path d="M485.988 176.928C496.246 176.928 504.563 168.612 504.563 158.353C504.563 148.095 496.246 139.778 485.988 139.778C475.729 139.778 467.413 148.095 467.413 158.353C467.413 168.612 475.729 176.928 485.988 176.928Z" fill="white"/>
<path d="M664.131 489.947C674.39 489.947 682.706 481.63 682.706 471.372C682.706 461.113 674.39 452.797 664.131 452.797C653.873 452.797 645.556 461.113 645.556 471.372C645.556 481.63 653.873 489.947 664.131 489.947Z" fill="white"/>
<path d="M733.168 476.049C745.456 476.049 755.418 466.088 755.418 453.799C755.418 441.511 745.456 431.55 733.168 431.55C720.88 431.55 710.919 441.511 710.919 453.799C710.919 466.088 720.88 476.049 733.168 476.049Z" fill="white"/>
<path d="M450.647 132.223C460.906 132.223 469.222 123.907 469.222 113.648C469.222 103.39 460.906 95.0732 450.647 95.0732C440.389 95.0732 432.073 103.39 432.073 113.648C432.073 123.907 440.389 132.223 450.647 132.223Z" fill="white"/>
<path d="M418.802 90.7738C429.061 90.7738 437.377 82.4576 437.377 72.1989C437.377 61.9403 429.061 53.624 418.802 53.624C408.543 53.624 400.227 61.9403 400.227 72.1989C400.227 82.4576 408.543 90.7738 418.802 90.7738Z" fill="white"/>
<path d="M384.142 48.1967C394.401 48.1967 402.717 39.8804 402.717 29.6218C402.717 19.3631 394.401 11.0469 384.142 11.0469C373.883 11.0469 365.567 19.3631 365.567 29.6218C365.567 39.8804 373.883 48.1967 384.142 48.1967Z" fill="white"/>
<path d="M243.689 236.157C255.168 236.157 264.474 226.851 264.474 215.371C264.474 203.892 255.168 194.586 243.689 194.586C232.209 194.586 222.903 203.892 222.903 215.371C222.903 226.851 232.209 236.157 243.689 236.157Z" fill="white"/>
<path d="M186.662 197.66C198.141 197.66 207.447 188.354 207.447 176.874C207.447 165.395 198.141 156.089 186.662 156.089C175.182 156.089 165.876 165.395 165.876 176.874C165.876 188.354 175.182 197.66 186.662 197.66Z" fill="white"/>
<path d="M126.725 157.808C138.205 157.808 147.511 148.502 147.511 137.023C147.511 125.543 138.205 116.237 126.725 116.237C115.246 116.237 105.94 125.543 105.94 137.023C105.94 148.502 115.246 157.808 126.725 157.808Z" fill="white"/>
</svg>
